<svg xmlns="http://www.w3.org/2000/svg" width="692" height="508" viewBox="0 0 692 508"><defs><style type="text/css"/></defs><g transform="translate(505.2704322361722 235.5033086884215) scale(1)"><g class="relationship"><g transform="translate(-283.3599524897256 -119.10532894197485) rotate(36.58383557436265)" stroke-width="5" stroke="#000000"><path d="M 59 0 L 201.67741134742116 0"/><polygon points="-24.8621506177483,0 -27.62461179749811,9.20820393249937 0,0 -27.62461179749811,-9.20820393249937" fill="#000000" transform="translate(226.53956196516947 0) rotate(0)" stroke="none"/></g><g transform="translate(-178.69984197761164 -41.4236743233311) rotate(36.58383557436265) translate(0 -13)"><g transform="translate(0 0)"><g transform="translate(-36.109375 0)" fill="#ffffff" stroke="#000000" stroke-width="0"><rect x="0" y="0" width="72.21875" height="26" rx="5" ry="5" stroke="none"/><text xml:space="preserve" x="5" y="17.5" stroke="none" text-anchor="left" font-family="sans-serif" font-size="16" font-weight="normal" fill="#000000">WRITES</text></g></g></g></g><g class="relationship"><g transform="translate(-54.07578125000009 51.07578124999998) rotate(149.99999999999997)" stroke-width="5" stroke="#000000"><path d="M 59 0 L 201.6774113474211 0"/><polygon points="-24.8621506177483,0 -27.62461179749811,9.20820393249937 0,0 -27.62461179749811,-9.20820393249937" fill="#000000" transform="translate(226.5395619651694 0) rotate(0)" stroke="none"/></g><g transform="translate(-166.95241145981635 116.24513408685529) rotate(329.99999999999994) translate(0 -13)"><g transform="translate(0 0)"><g transform="translate(-44.56640625 0)" fill="#ffffff" stroke="#000000" stroke-width="0"><rect x="0" y="0" width="89.1328125" height="26" rx="5" ry="5" stroke="none"/><text xml:space="preserve" x="5" y="17.5" stroke="none" text-anchor="left" font-family="sans-serif" font-size="16" font-weight="normal" fill="#000000">IS_ABOUT</text></g></g></g></g><g class="node"><g fill="#ffffff" stroke="#000000" stroke-width="4"><circle cx="-283.3599524897256" cy="-119.10532894197485" r="52"/></g><g transform="translate(-283.3599524897256 -119.10532894197485)"><g transform="scale(0.4996226534218527) translate(0 -27)"><g transform="translate(0 0)"><g transform="translate(-85.92578125 0)"><g fill="#ffffff" stroke="#000000" stroke-width="4"><rect x="0" y="0" width="171.8515625" height="54" rx="27" ry="27"/><text xml:space="preserve" x="27" y="38" stroke="none" font-family="sans-serif" font-size="40" font-weight="normal" fill="#000000">Author</text></g></g></g></g><g transform="translate(-39.597979746446654 -116.39797974644665)"><g transform="translate(0 0)"><g transform="translate(-182.3125 0)" fill="white"><rect x="0" y="0" width="182.3125" height="76.8" rx="0" ry="0" stroke="none"/><g font-family="sans-serif" font-size="16" font-weight="normal" fill="#000000" text-anchor="end"><text xml:space="preserve" x="123.609375" y="14.1" stroke="none">id:</text><text xml:space="preserve" x="128.0546875" y="14.1" stroke="none" text-anchor="start">Integer</text><text xml:space="preserve" x="123.609375" y="33.3" stroke="none" text-anchor="end">full_name:</text><text xml:space="preserve" x="128.0546875" y="33.3" stroke="none" text-anchor="start">String</text><text xml:space="preserve" x="123.609375" y="52.5" stroke="none" text-anchor="end">h-index:</text><text xml:space="preserve" x="128.0546875" y="52.5" stroke="none" text-anchor="start">Integer</text><text xml:space="preserve" x="123.609375" y="71.7" stroke="none" text-anchor="end">research_sector:</text><text xml:space="preserve" x="128.0546875" y="71.7" stroke="none" text-anchor="start">Integer</text></g></g></g></g></g></g><g class="node"><g fill="#ffffff" stroke="#000000" stroke-width="4"><circle cx="-54.07578125000009" cy="51.07578124999998" r="52"/></g><g transform="translate(-54.07578125000009 51.07578124999998)"><g transform="scale(0.3523108128578131) translate(0 -27)"><g transform="translate(0 0)"><g transform="translate(-124.841796875 0)"><g fill="#ffffff" stroke="#000000" stroke-width="4"><rect x="0" y="0" width="249.68359375" height="54" rx="27" ry="27"/><text xml:space="preserve" x="27" y="38" stroke="none" font-family="sans-serif" font-size="40" font-weight="normal" fill="#000000">Publication</text></g></g></g></g><g transform="translate(56 -38.4)"><g transform="translate(0 0)"><g transform="translate(0 0)" fill="white"><rect x="0" y="0" width="184.1171875" height="76.8" rx="0" ry="0" stroke="none"/><g font-family="sans-serif" font-size="16" font-weight="normal" fill="#000000" text-anchor="end"><text xml:space="preserve" x="125.4140625" y="14.1" stroke="none">id:</text><text xml:space="preserve" x="129.859375" y="14.1" stroke="none" text-anchor="start">Integer</text><text xml:space="preserve" x="125.4140625" y="33.3" stroke="none" text-anchor="end">publication_year:</text><text xml:space="preserve" x="129.859375" y="33.3" stroke="none" text-anchor="start">Integer</text><text xml:space="preserve" x="125.4140625" y="52.5" stroke="none" text-anchor="end">doi:</text><text xml:space="preserve" x="129.859375" y="52.5" stroke="none" text-anchor="start">String</text><text xml:space="preserve" x="125.4140625" y="71.7" stroke="none" text-anchor="end">status:</text><text xml:space="preserve" x="129.859375" y="71.7" stroke="none" text-anchor="start">String</text></g></g></g></g></g></g><g class="node"><g fill="#ffffff" stroke="#000000" stroke-width="4"><circle cx="-301.3602956973176" cy="193.84556223258477" r="52"/></g><g transform="translate(-301.3602956973176 193.84556223258477)"><g transform="scale(0.573393326962831) translate(0 -27)"><g transform="translate(0 0)"><g transform="translate(-73.689453125 0)"><g fill="#ffffff" stroke="#000000" stroke-width="4"><rect x="0" y="0" width="147.37890625" height="54" rx="27" ry="27"/><text xml:space="preserve" x="27" y="38" stroke="none" font-family="sans-serif" font-size="40" font-weight="normal" fill="#000000">Topic</text></g></g></g></g><g transform="translate(-39.597979746446654 39.59797974644666)"><g transform="translate(0 0)"><g transform="translate(-107.6171875 0)" fill="white"><rect x="0" y="0" width="107.6171875" height="38.4" rx="0" ry="0" stroke="none"/><g font-family="sans-serif" font-size="16" font-weight="normal" fill="#000000" text-anchor="end"><text xml:space="preserve" x="48.9140625" y="14.1" stroke="none">id:</text><text xml:space="preserve" x="53.359375" y="14.1" stroke="none" text-anchor="start">Integer</text><text xml:space="preserve" x="48.9140625" y="33.3" stroke="none" text-anchor="end">name:</text><text xml:space="preserve" x="53.359375" y="33.3" stroke="none" text-anchor="start">string</text></g></g></g></g></g></g></g></svg>